<?xml version="1.0" encoding="UTF-8" standalone="no"?>
<!-- Created with Inkscape (http://www.inkscape.org/) -->

<svg
   width="512"
   height="512"
   viewBox="0 0 135.46667 135.46667"
   version="1.1"
   id="svg1"
   xml:space="preserve"
   sodipodi:docname="stamon-min.svg"
   inkscape:version="1.3.2 (091e20ef0f, 2023-11-25, custom)"
   xmlns:inkscape="http://www.inkscape.org/namespaces/inkscape"
   xmlns:sodipodi="http://sodipodi.sourceforge.net/DTD/sodipodi-0.dtd"
   xmlns="http://www.w3.org/2000/svg"
   xmlns:svg="http://www.w3.org/2000/svg"><sodipodi:namedview
     id="namedview1"
     pagecolor="#505050"
     bordercolor="#eeeeee"
     borderopacity="1"
     inkscape:showpageshadow="0"
     inkscape:pageopacity="0"
     inkscape:pagecheckerboard="0"
     inkscape:deskcolor="#d1d1d1"
     inkscape:zoom="0.4609375"
     inkscape:cx="256"
     inkscape:cy="254.91525"
     inkscape:window-width="1151"
     inkscape:window-height="693"
     inkscape:window-x="113"
     inkscape:window-y="73"
     inkscape:window-maximized="1"
     inkscape:current-layer="svg1" /><defs
     id="defs1" /><g
     id="layer1"
     style="fill:#ffffff"><path
       d="m 56.772199,24.491175 c -1.856984,0 -2.668647,0.570538 -3.100693,2.177042 -0.258055,0.959524 -1.171849,5.574735 -2.651453,13.393206 -0.919008,4.856174 -2.884915,14.230458 -3.819262,18.21416 -0.151702,0.646293 -0.956947,4.348398 -1.789454,8.226198 -0.832485,3.87782 -1.865459,8.570281 -2.296603,10.428404 l -0.783977,3.378818 -2.285278,-4.635966 C 38.099102,71.724011 37.589786,70.9241 36.610048,70.275738 34.35465,68.78318 31.241222,69.092669 29.337725,70.998063 c -0.678969,0.679627 -1.940677,2.805042 -3.366246,5.670373 -1.254255,2.52105 -2.533592,4.814365 -2.844002,5.095283 -3.136289,2.83834 -14.9541882,0.232859 -18.0265126,1.880057 -1.3853642,0.742992 -2.0996199,1.791032 -2.2600975,3.31464 -0.1987106,1.886227 0.4681838,3.522946 1.6900259,4.146446 1.3692166,0.698713 16.5977102,0.947622 19.7266442,-0.109478 2.920856,-0.986387 5.104541,-3.222922 7.104955,-7.276101 0.874393,-1.771676 1.663192,-3.231221 1.752953,-3.242909 0.08986,-0.01216 0.935491,1.836315 1.878799,4.106176 0.943285,2.269862 2.100719,4.659599 2.572191,5.310467 1.112504,1.535739 2.801093,2.300366 5.080189,2.300366 3.035501,0 4.842198,-1.199033 5.867938,-3.896021 0.691805,-1.819016 3.781101,-15.048784 6.187579,-26.496983 0.44152,-2.100471 0.955143,-4.521214 1.14136,-5.379681 l 0.338513,-1.560423 0.497065,2.735774 c 0.273444,1.504757 1.15619,6.702384 1.961864,11.549645 0.80565,4.847234 2.069646,12.052092 2.807499,16.010686 0.737879,3.9586 1.591208,8.584622 1.897674,10.281173 1.207378,6.683327 2.104809,11.359677 2.374624,12.373897 0.336808,1.2661 1.297966,2.56064 2.158162,2.90819 0.93732,0.37872 3.462608,0.32676 4.292415,-0.0881 h 0.0013 c 1.003529,-0.50181 1.811395,-2.27038 3.249187,-7.11503 0.671325,-2.26205 1.920589,-6.360323 2.776037,-9.107086 0.855449,-2.746786 1.890124,-6.117879 2.299112,-7.491285 1.3718,-4.606546 3.079018,-10.128965 3.361204,-10.870105 0.275808,-0.724364 0.282943,-0.719631 0.492049,0.294466 0.367151,1.780614 4.220333,18.27777 4.700134,20.123157 1.365126,5.250453 2.453766,6.942643 5.012222,7.787013 2.352806,0.7765 5.809866,-0.12182 7.537858,-1.95808 0.43207,-0.45912 1.79827,-2.817639 3.03528,-5.241256 1.23704,-2.423617 2.43822,-4.60179 2.66906,-4.839826 1.01564,-1.047248 21.44292,0.0917 23.53973,-1.204295 2.41426,-1.492072 2.42332,-5.370059 0.0153,-7.150258 -11.3105,-1.511586 -13.37062,-0.612843 -25.05187,-0.612843 l -1.84607,1.001689 c -2.79486,1.515477 -3.49723,2.487015 -6.047899,8.373429 -0.354949,0.81914 -0.42182,0.668318 -1.583076,-3.52605 -0.667111,-2.40947 -2.076317,-7.751628 -3.130914,-11.871797 -1.054594,-4.120144 -2.216435,-8.41406 -2.582245,-9.542486 -0.736955,-2.273199 -1.934518,-3.851811 -3.377573,-4.454755 -1.242613,-0.519203 -4.159816,-0.508086 -5.412391,0.02142 -1.152344,0.486815 -2.924094,2.258493 -3.597783,3.59778 -0.425398,0.845734 -2.475758,7.42472 -5.476583,17.576149 -1.71998,5.818475 -1.60358,5.652738 -2.149348,3.084351 C 70.070769,84.996025 68.822237,78.246211 67.343582,69.879388 66.786781,66.728677 65.338883,58.598619 64.127098,51.812461 62.191702,40.974072 60.97602,33.67861 60.115311,27.745459 59.763041,25.317086 58.91485,24.491221 56.771713,24.491221 Z"
       id="path22"
       style="fill:#ffffff;stroke-width:2.43517" /></g></svg>
